# xmcd CD database file
#
# Track frame offsets:
#	150
#	13487
#	27502
#	42287
#	57340
#	71572
#	84047
#	98167
#	113660
#	127442
#	140457
#	155457
#	170257
#	184597
#	199215
#	212770
#	227022
#	241982
#	257712
#	272415
#	286055
#	297460
#	310215
#	322285
#
# Disc length: 4476 seconds
#
# Revision: 0
# Processed by: cddbd v1.4PL0 Copyright (c) Steve Scherf et al.
# Submitted via: CDex 1.40Release
#
DISCID=66117a18
DTITLE=Various Artist - Mississippi Blues, Vol. 1 (1928-1937)
DYEAR=1900
DGENRE=Blues
TTITLE0=Look Here Mama Blues (Uncle Bud Walker)
TTITLE1=Stand Up Suitcase Blues (Uncle Bud Walker)
TTITLE2=World In A Jug ("Big Road" Webster Taylor)
TTITLE3=Sunny Southern Blues ("Big Road" Webster Taylor)
TTITLE4=Down The Big Road Blues (Mattie Delaney)
TTITLE5=Tallahatchie River Blues (Mattie Delaney)
TTITLE6=All Night Long Blues (Louise Johnson)
TTITLE7=Long Ways From Home (Louise Johnson)
TTITLE8=On the Wall (Louise Johnson)
TTITLE9=By the Moon And Stars (Louise Johnson)
TTITLE10=You Scolded Me And Drove Me From Your Door (Mississippi Bracy)
TTITLE11=Cherry Ball (Mississippi Bracy)
TTITLE12=Stered Gal (Mississippi Bracy)
TTITLE13=I'll Overcome Someday (Mississippi Bracy)
TTITLE14=Last Kind Words Blues (Geechie Wiley and Elvie Thomas)
TTITLE15=Skinny Leg Blues (Geechie Wiley and Elvie Thomas)
TTITLE16=Motherless Child Blues (Geechie Wiley and Elvie Thomas)
TTITLE17=Over To My House (Geechie Wiley and Elvie Thomas)
TTITLE18=Pick Poor Robin Clean (Geechie Wiley and Elvie Thomas)
TTITLE19=Eagles On a Half (Geechie Wiley and Elvie Thomas)
TTITLE20=Mississippi Moan (The Mississippi Moaner (Isaiah Nettles))
TTITLE21=It's Cold In China Blues (The Mississippi Moaner (Isaiah Nettles))
TTITLE22=Ten Pound Hammer (Mose Andrews)
TTITLE23=Young Heifer Blues (Mose Andrews)
EXTD=ID3G: 0
EXTT0=
EXTT1=
EXTT2=
EXTT3=
EXTT4=
EXTT5=
EXTT6=
EXTT7=
EXTT8=
EXTT9=
EXTT10=
EXTT11=
EXTT12=
EXTT13=
EXTT14=
EXTT15=
EXTT16=
EXTT17=
EXTT18=
EXTT19=
EXTT20=
EXTT21=
EXTT22=
EXTT23=
PLAYORDER=
